<svg width="254" height="264" viewBox="0 0 254 264" fill="none" xmlns="http://www.w3.org/2000/svg">
<g opacity="0.8" clip-path="url(#clip0_15_12083)">
<path d="M128.336 264C180.102 264 222.066 256.577 222.066 247.421C222.066 238.264 180.102 230.841 128.336 230.841C76.5707 230.841 34.6064 238.264 34.6064 247.421C34.6064 256.577 76.5707 264 128.336 264Z" fill="#3F3D56"/>
<path d="M50.2227 91.2539C50.2227 67.0998 85.6367 47.519 129.322 47.519C173.008 47.519 208.422 67.0998 208.422 91.2539" stroke="#3F3D56" stroke-width="2" stroke-miterlimit="10"/>
<path d="M154.194 64.3582H89.8418C77.1139 42.9055 77.1139 21.4527 89.8418 0H154.194C136.397 21.4527 136.397 42.9055 154.194 64.3582Z" fill="#E6E6E6"/>
<path d="M135.297 7.66162H99.0349V12.2586H135.297V7.66162Z" fill="#3563E9"/>
<path d="M135.297 22.7295H87.2881V24.2618H135.297V22.7295Z" fill="white"/>
<path d="M135.297 30.647H87.2881V32.1793H135.297V30.647Z" fill="white"/>
<path d="M135.297 38.564H87.2881V40.0963H135.297V38.564Z" fill="white"/>
<path d="M179.886 206.819C179.886 227.23 192.69 243.746 208.512 243.746L179.886 206.819Z" fill="#3F3D56"/>
<path d="M208.512 243.746C208.512 223.106 222.8 206.404 240.457 206.404L208.512 243.746Z" fill="#6C63FF"/>
<path d="M190.258 208.669C190.258 228.058 198.422 243.746 208.512 243.746L190.258 208.669Z" fill="#6C63FF"/>
<path d="M208.512 243.746C208.512 217.372 225.027 196.031 245.436 196.031L208.512 243.746Z" fill="#3F3D56"/>
<path d="M202.49 244.006C202.49 244.006 206.55 243.881 207.773 243.01C208.997 242.139 214.018 241.098 214.321 242.496C214.625 243.893 220.422 249.446 215.839 249.483C211.256 249.52 205.189 248.769 203.968 248.025C202.747 247.281 202.49 244.006 202.49 244.006Z" fill="#A8A8A8"/>
<path opacity="0.2" d="M215.921 248.997C211.337 249.034 205.271 248.283 204.05 247.539C203.12 246.972 202.75 244.939 202.626 244.001C202.54 244.005 202.49 244.007 202.49 244.007C202.49 244.007 202.747 247.281 203.968 248.025C205.189 248.769 211.256 249.52 215.839 249.483C217.162 249.472 217.619 249.002 217.594 248.304C217.41 248.726 216.906 248.989 215.921 248.997Z" fill="black"/>
<path d="M114.579 50.2754C114.952 50.4463 115.4 50.1916 115.62 49.8454C116.456 48.5272 114.916 46.8274 115.25 45.3021C115.517 44.0802 116.905 43.3549 117.189 42.1367C117.465 40.953 116.615 39.6188 117.19 38.5477C117.64 37.7086 118.764 37.4878 119.705 37.6348C120.645 37.7818 121.538 38.1954 122.488 38.2533C123.755 38.3306 124.962 37.773 126.2 37.4968C127.438 37.2206 128.949 37.3287 129.677 38.3676C130.613 39.7014 129.664 41.5588 129.99 43.1551C130.248 44.4227 131.309 45.4723 131.332 46.7658C131.34 47.2255 130.132 46.8551 130.196 47.3104C130.26 47.7657 129.689 47.3649 130.146 47.3108C130.332 47.2651 130.499 47.1613 130.623 47.0143C130.746 46.8674 130.82 46.685 130.833 46.4934C130.887 46.1142 131.599 45.9878 131.591 45.6048C131.572 44.7072 133.195 45.3124 133.462 44.4553C134.076 42.4571 133.95 40.3045 133.107 38.3918C132.743 37.5752 132.247 36.8024 132.072 35.9258C131.833 34.7357 132.208 33.458 131.815 32.3097C131.285 30.7621 129.532 29.9732 127.904 29.813C126.277 29.6527 124.622 29.9396 123.004 29.7033C121.554 29.4916 120.151 28.8632 118.688 28.9543C116.933 29.0635 115.406 30.1942 114.19 31.4638C112.974 32.7334 111.942 34.1936 110.56 35.2812C110.137 35.5723 109.747 35.9082 109.397 36.2832C108.693 37.1408 108.622 38.3624 108.817 39.4542C109.013 40.5461 109.439 41.5876 109.619 42.6822C109.788 43.7109 109.736 44.7619 109.808 45.8018C109.881 46.8417 110.097 47.9131 110.723 48.7465C110.974 49.0869 111.299 49.3656 111.674 49.5614C112.049 49.7572 112.463 49.8649 112.886 49.8763C113.178 49.883 113.426 49.6199 113.721 49.6885C114.091 49.7743 114.251 50.1251 114.579 50.2754Z" fill="#2F2E41"/>
<path d="M102.055 125.849L103.14 132.516L105.311 129.57L104.071 125.073L102.055 125.849Z" fill="#A0616A"/>
<path d="M103.451 75.4536L101.742 79.9577C101.742 79.9577 100.04 102.899 100.04 104.605C100.04 106.311 101.28 128.174 101.745 129.105C101.745 129.105 103.761 126.158 106.396 126.624C109.032 127.089 107.947 118.871 107.947 118.871L110.428 98.5577L109.962 88.3237L103.451 75.4536Z" fill="#575A89"/>
<path opacity="0.1" d="M103.451 75.4536L101.742 79.9577C101.742 79.9577 100.04 102.899 100.04 104.605C100.04 106.311 101.28 128.174 101.745 129.105C101.745 129.105 103.761 126.158 106.396 126.624C109.032 127.089 107.947 118.871 107.947 118.871L110.428 98.5577L109.962 88.3237L103.451 75.4536Z" fill="black"/>
<path d="M113.994 50.6442C113.994 50.6442 119.11 63.6693 116.164 66.1503C113.218 68.6313 132.599 61.9637 132.599 61.9637L132.134 60.258C132.134 60.258 125.777 57.777 128.878 50.6442C131.979 43.5115 113.994 50.6442 113.994 50.6442Z" fill="#A0616A"/>
<path opacity="0.1" d="M113.994 50.6442C113.994 50.6442 119.11 63.6693 116.164 66.1503C113.218 68.6313 132.599 61.9637 132.599 61.9637L132.134 60.258C132.134 60.258 125.777 57.777 128.878 50.6442C131.979 43.5115 113.994 50.6442 113.994 50.6442Z" fill="black"/>
<path d="M105.931 224.622C105.931 224.622 103.761 224.002 102.52 225.552C101.28 227.103 96.6285 230.98 96.6285 230.98C96.6285 230.98 87.6359 230.049 86.3956 234.546C85.1552 239.043 100.505 239.043 104.226 237.957C107.947 236.872 108.722 237.957 108.722 237.957C108.722 237.957 120.195 238.888 120.195 237.027C120.195 235.166 119.11 228.809 119.11 228.809L105.931 224.622Z" fill="#575A89"/>
<path d="M142.367 235.011L140.351 241.213C140.351 241.213 134.304 249.587 137.715 251.292C141.126 252.998 153.22 254.704 153.22 250.207V241.679C153.22 241.679 151.98 235.631 150.739 235.011C149.499 234.391 142.367 235.011 142.367 235.011Z" fill="#575A89"/>
<path d="M108.127 123.579C108.127 123.579 101.59 129.26 101.745 130.035C101.9 130.81 105.001 180.585 105.001 180.585L106.707 212.837C106.707 212.837 104.536 220.435 105.621 222.141C106.707 223.847 104.071 224.312 104.071 224.312C104.071 224.312 115.234 234.391 119.885 230.049L124.227 173.762L136.165 214.698C136.165 214.698 138.181 236.406 140.506 236.406C142.832 236.406 152.29 236.872 152.135 235.631C151.98 234.391 152.6 224.932 151.515 219.35C150.429 213.768 143.142 169.575 143.142 169.575C143.142 169.575 142.516 131.69 144.147 128.149C145.778 124.608 143.297 120.886 143.297 120.886L132.444 116.7L119.42 118.25L108.127 123.579Z" fill="#5A5D72"/>
<path d="M121.281 55.916C127.275 55.916 132.134 51.0564 132.134 45.0618C132.134 39.0671 127.275 34.2075 121.281 34.2075C115.287 34.2075 110.428 39.0671 110.428 45.0618C110.428 51.0564 115.287 55.916 121.281 55.916Z" fill="#A0616A"/>
<path d="M147.638 68.476C147.102 66.9589 146.199 65.5983 145.008 64.5159C143.818 63.4336 142.378 62.6632 140.817 62.2736C137.689 61.4868 134.63 60.4497 131.669 59.1724C131.669 59.1724 120.661 64.4444 118.49 64.4444C116.319 64.4444 116.319 63.0489 116.319 63.0489C116.319 63.0489 110.738 68.9412 107.792 69.5614C104.846 70.1817 100.505 77.4695 102.055 81.5011C103.108 84.0858 104.633 86.4519 106.552 88.4788C106.552 88.4788 105.931 110.187 107.947 114.219C107.947 114.219 102.986 123.678 107.637 124.298C112.288 124.918 130.118 122.747 133.219 124.918C136.32 127.089 142.057 124.453 142.832 127.399C143.607 130.345 145.313 130.965 145.313 130.965C145.313 130.965 147.949 126.779 146.398 124.298C144.848 121.817 147.638 68.476 147.638 68.476Z" fill="#575A89"/>
<path d="M136.165 126.779L133.684 128.329C133.684 128.329 136.32 137.478 137.405 137.788C138.491 138.098 141.045 129.966 141.045 129.966L136.165 126.779Z" fill="#A0616A"/>
<path d="M112.719 49.19C113.091 49.3609 113.54 49.1061 113.759 48.7599C114.596 47.4417 113.056 45.7419 113.389 44.2167C113.656 42.9947 115.045 42.2694 115.329 41.0512C115.604 39.8675 114.755 38.5333 115.329 37.4623C115.779 36.6232 116.903 36.4024 117.844 36.5494C118.785 36.6964 119.678 37.1099 120.628 37.1679C121.894 37.2451 123.101 36.6876 124.34 36.4114C125.578 36.1351 127.088 36.2433 127.817 37.2821C128.752 38.616 127.803 40.4734 128.129 42.0697C128.388 43.3372 131.334 44.2269 131.601 43.3698C132.216 41.3717 132.09 39.219 131.246 37.3063C130.882 36.4898 130.387 35.717 130.211 34.8404C129.973 33.6502 130.348 32.3726 129.955 31.2242C129.425 29.6767 127.671 28.8878 126.044 28.7275C124.416 28.5673 122.762 28.8541 121.143 28.6179C119.694 28.4062 118.29 27.7778 116.828 27.8688C115.073 27.9781 113.546 29.1088 112.329 30.3784C111.113 31.6479 110.081 33.1082 108.7 34.1958C108.277 34.4868 107.887 34.8228 107.536 35.1978C106.832 36.0553 106.761 37.2769 106.957 38.3688C107.152 39.4607 107.578 40.5022 107.758 41.5968C107.927 42.6255 107.875 43.6764 107.948 44.7163C108.021 45.7562 108.236 46.8277 108.863 47.661C109.113 48.0014 109.439 48.2801 109.813 48.4759C110.188 48.6717 110.602 48.7794 111.025 48.7908C111.318 48.7976 111.565 48.5344 111.861 48.603C112.23 48.6888 112.391 49.0396 112.719 49.19Z" fill="#2F2E41"/>
<path opacity="0.1" d="M141.514 71.1896L146.553 68.4761C146.553 68.4761 158.802 97.6275 155.856 105.691C152.91 113.754 141.592 130.345 141.592 130.345C141.592 130.345 132.599 128.485 133.529 126.624C134.46 124.763 140.506 112.823 140.972 111.273C141.437 109.722 144.538 99.6432 143.142 98.5578C141.747 97.4724 139.034 72.2751 139.034 72.2751L141.514 71.1896Z" fill="black"/>
<path d="M141.437 66.7705L147.638 68.4762C147.638 68.4762 159.887 97.6276 156.941 105.691C153.995 113.754 142.677 130.345 142.677 130.345C142.677 130.345 133.684 128.485 134.615 126.624C135.545 124.763 141.592 112.824 142.057 111.273C142.522 109.722 145.623 99.6433 144.227 98.5579C142.832 97.4725 136.165 70.647 136.165 70.647L141.437 66.7705Z" fill="#575A89"/>
<path d="M208.422 91.2539C208.422 116.578 173.008 137.107 129.322 137.107C85.6368 137.107 50.2227 116.578 50.2227 91.2539" stroke="#3F3D56" stroke-width="2" stroke-miterlimit="10"/>
<path d="M194.034 137.758C176.353 147.295 153.283 153.066 128.046 153.066C103.85 153.066 81.6448 147.76 64.272 138.917" stroke="#3F3D56" stroke-width="2" stroke-miterlimit="10"/>
<path d="M168.824 35.6802C202.472 44.5251 226.436 63.981 228.665 86.8956" stroke="#3F3D56" stroke-width="2" stroke-miterlimit="10"/>
<path d="M32.114 72.0015C37.7836 61.58 48.1409 52.4087 61.7111 45.3628" stroke="#3F3D56" stroke-width="2" stroke-miterlimit="10"/>
<path d="M101.676 183.559H166.028C178.756 162.106 178.756 140.653 166.028 119.201H101.676C119.473 140.653 119.473 162.106 101.676 183.559Z" fill="#F2F2F2"/>
<path d="M159.231 131.459H122.969V136.056H159.231V131.459Z" fill="#3563E9"/>
<path d="M168.168 145.25H120.16V146.782H168.168V145.25Z" fill="white"/>
<path d="M168.168 153.167H120.16V154.7H168.168V153.167Z" fill="white"/>
<path d="M74.3976 139.875H10.0459C-2.68196 118.423 -2.68196 96.9698 10.0459 75.5171H74.3976C56.6011 96.9698 56.6011 118.423 74.3976 139.875Z" fill="#F2F2F2"/>
<path d="M53.4577 83.1787H17.196V87.7757H53.4577V83.1787Z" fill="#3563E9"/>
<path d="M57.2882 95.9482H9.27979V97.4806H57.2882V95.9482Z" fill="white"/>
<path d="M57.2882 103.865H9.27979V105.398H57.2882V103.865Z" fill="white"/>
<path d="M57.2882 111.782H9.27979V113.315H57.2882V111.782Z" fill="white"/>
<path d="M57.2882 119.699H9.27979V121.232H57.2882V119.699Z" fill="white"/>
<path d="M179.602 110.23H243.954C256.682 88.7771 256.682 67.3243 243.954 45.8716H179.602C197.399 67.3243 197.399 88.7771 179.602 110.23Z" fill="#F2F2F2"/>
<path d="M236.391 52.2563H200.129V56.8534H236.391V52.2563Z" fill="#3563E9"/>
<path d="M244.307 65.0254H196.298V66.5577H244.307V65.0254Z" fill="white"/>
</g>
<defs>
<clipPath id="clip0_15_12083">
<rect width="253" height="264" fill="white" transform="translate(0.5)"/>
</clipPath>
</defs>
</svg>
